<svg width="113" height="50" viewBox="0 0 113 50" fill="none" xmlns="http://www.w3.org/2000/svg">
<path d="M24.6503 21.3286C26.7482 19.0559 28.1468 15.9091 28.1468 12.5874C28.1468 5.5944 22.5524 0 15.5594 0C8.91608 0 3.32168 5.24476 2.97203 11.8881H9.7902C10.1399 8.91608 12.5874 6.64336 15.5594 6.64336C18.8811 6.64336 21.5035 9.26572 21.5035 12.5874C21.5035 15.9091 18.8811 18.5315 15.5594 18.5315V25.1748C20.6294 25.1748 24.6503 29.1958 24.6503 34.2657C24.6503 39.3356 20.6294 43.3566 15.5594 43.3566C11.7133 43.3566 8.21678 40.9091 6.993 37.4126H0C1.3986 44.5804 7.86713 50 15.5594 50C24.3007 50 31.4685 42.8321 31.4685 34.0909C31.4685 28.8461 28.6713 24.1259 24.6503 21.3286Z" fill="#1A1A1A"/>
<path d="M56.1188 18.3566C55.7691 18.3566 55.2447 18.3566 54.895 18.3566L65.7342 0.349609H57.6922L42.4824 25.8741C41.0838 28.3216 40.2097 31.1188 40.2097 34.0908C40.2097 42.8321 47.3775 49.9999 56.1188 49.9999C64.86 49.9999 72.0279 42.8321 72.0279 34.0908C72.0279 25.5244 64.86 18.3566 56.1188 18.3566ZM56.1188 43.3566C51.0489 43.3566 47.0279 39.3356 47.0279 34.2657C47.0279 29.1957 51.0489 25.1748 56.1188 25.1748C61.1887 25.1748 65.2097 29.1957 65.2097 34.2657C65.2097 39.3356 61.1887 43.3566 56.1188 43.3566Z" fill="#1A1A1A"/>
<path d="M96.6781 18.3566C94.5802 18.3566 92.8319 18.7062 91.4333 19.0559L94.0557 7.16776H109.79V0.524414H88.6361L82.5173 28.1468H89.5103C89.5103 28.1468 91.9578 24.9999 96.5033 24.9999C101.573 24.9999 105.594 29.0209 105.594 34.0908C105.594 39.1607 101.573 43.1817 96.5033 43.1817C92.8319 43.1817 89.5103 40.909 88.1117 37.7621H81.1187C82.8669 44.7551 89.1606 49.9999 96.5033 49.9999C105.245 49.9999 112.412 42.8321 112.412 34.0908C112.412 25.5244 105.419 18.3566 96.6781 18.3566Z" fill="#1A1A1A"/>
</svg>
