<svg width="226" height="46" viewBox="0 0 226 46" fill="none" xmlns="http://www.w3.org/2000/svg">
<g clip-path="url(#clip0)">
<path d="M22.6271 19.5331C24.6299 17.4557 25.875 14.6499 25.875 11.5472C25.875 5.18006 20.6783 0 14.2908 0C8.11976 0 3.05844 4.82933 2.73365 10.8997H8.93174C9.25653 8.22874 11.5301 6.15132 14.2908 6.15132C17.268 6.15132 19.6769 8.55249 19.6769 11.5202C19.6769 14.488 17.268 16.8891 14.2908 16.8891V23.0405C18.919 23.0405 22.7083 26.7906 22.7083 31.4311C22.7083 36.0446 18.9461 39.8217 14.2908 39.8217C10.691 39.8217 7.60551 37.5554 6.41461 34.3718H0C1.35329 40.9818 7.25365 45.973 14.2908 45.973C22.3293 45.973 28.8793 39.444 28.8793 31.4311C28.8793 26.5208 26.3892 22.1501 22.6271 19.5331Z" fill="#333333"/>
<path d="M51.5334 16.9162C51.1544 16.9162 50.7755 16.9431 50.3966 16.9701L60.3027 0.539612H53.1032L39.1101 23.9038C37.7568 26.1161 36.9719 28.7062 36.9719 31.4581C36.9719 39.471 43.5219 46 51.5604 46C59.599 46 66.1489 39.471 66.1489 31.4581C66.1219 23.4452 59.599 16.9162 51.5334 16.9162ZM51.5334 39.8217C46.9051 39.8217 43.1429 36.0716 43.1429 31.4311C43.1429 26.8176 46.9051 23.0405 51.5334 23.0405C56.1616 23.0405 59.9508 26.7906 59.9508 31.4311C59.9508 36.0716 56.1887 39.8217 51.5334 39.8217Z" fill="#333333"/>
<path d="M88.8031 16.9162C86.9355 16.9162 85.3386 17.159 83.9854 17.5097L86.3672 6.69093H100.847V0.539612H81.387L75.7844 25.9003H82.2802C82.2802 25.9003 84.4455 23.0675 88.776 23.0675C93.4043 23.0675 97.1664 26.8176 97.1664 31.4581C97.1664 36.0716 93.4043 39.8487 88.776 39.8487C85.3387 39.8487 82.3885 37.7983 81.0893 34.8575H74.5935C76.1363 41.2516 81.9013 46.027 88.776 46.027C96.8146 46.027 103.365 39.498 103.365 31.4851C103.392 23.4452 96.8416 16.9162 88.8031 16.9162Z" fill="#333333"/>
<path d="M124.178 0C122.554 0 121.228 1.32199 121.228 2.94076C121.228 4.55953 122.554 5.88153 124.178 5.88153C125.802 5.88153 127.128 4.55953 127.128 2.94076C127.128 1.32199 125.802 0 124.178 0Z" fill="#333333"/>
<path d="M144.288 0C142.664 0 141.338 1.32199 141.338 2.94076C141.338 4.55953 142.664 5.88153 144.288 5.88153C145.912 5.88153 147.238 4.55953 147.238 2.94076C147.238 1.32199 145.912 0 144.288 0Z" fill="#333333"/>
<path d="M164.398 0C162.774 0 161.448 1.32199 161.448 2.94076C161.448 4.55953 162.774 5.88153 164.398 5.88153C166.022 5.88153 167.348 4.55953 167.348 2.94076C167.348 1.32199 166.022 0 164.398 0Z" fill="#333333"/>
<path d="M124.178 40.0915C122.554 40.0915 121.228 41.4135 121.228 43.0322C121.228 44.651 122.554 45.973 124.178 45.973C125.802 45.973 127.128 44.651 127.128 43.0322C127.128 41.4135 125.802 40.0915 124.178 40.0915Z" fill="#333333"/>
<path d="M144.288 40.0915C142.664 40.0915 141.338 41.4135 141.338 43.0322C141.338 44.651 142.664 45.973 144.288 45.973C145.912 45.973 147.238 44.651 147.238 43.0322C147.238 41.4135 145.912 40.0915 144.288 40.0915Z" fill="#333333"/>
<path d="M164.398 40.0915C162.774 40.0915 161.448 41.4135 161.448 43.0322C161.448 44.651 162.774 45.973 164.398 45.973C166.022 45.973 167.348 44.651 167.348 43.0322C167.348 41.4135 166.022 40.0915 164.398 40.0915Z" fill="#333333"/>
<path d="M184.508 40.0915C182.884 40.0915 181.558 41.4135 181.558 43.0322C181.558 44.651 182.884 45.973 184.508 45.973C186.132 45.973 187.458 44.651 187.458 43.0322C187.458 41.4135 186.132 40.0915 184.508 40.0915Z" fill="#333333"/>
<path d="M204.618 40.0915C202.994 40.0915 201.668 41.4135 201.668 43.0322C201.668 44.651 202.994 45.973 204.618 45.973C206.242 45.973 207.568 44.651 207.568 43.0322C207.568 41.4135 206.242 40.0915 204.618 40.0915Z" fill="#333333"/>
<path d="M126.966 19.5055C127.182 19.7753 127.318 20.0181 127.399 20.2609C127.48 20.5037 127.534 20.8275 127.561 21.2861H125.288C125.207 20.7196 124.936 20.4228 124.476 20.4228C124.259 20.4228 124.07 20.4767 123.908 20.6116C123.745 20.7465 123.664 20.9084 123.664 21.0973C123.664 21.448 123.908 21.7448 124.422 21.9876L125.531 22.5002C126.289 22.8509 126.831 23.2017 127.155 23.6064C127.48 24.0111 127.643 24.4967 127.643 25.0902C127.643 25.9536 127.372 26.6281 126.804 27.1137C126.235 27.5993 125.477 27.8421 124.476 27.8421C123.474 27.8421 122.663 27.5723 122.094 27.0597C121.499 26.5471 121.228 25.8457 121.228 24.9823V24.6855H123.529C123.529 25.0633 123.61 25.36 123.772 25.5759C123.935 25.7917 124.178 25.8996 124.449 25.8996C124.692 25.8996 124.909 25.8187 125.098 25.6568C125.261 25.4949 125.369 25.2791 125.369 25.0363C125.369 24.6586 125.044 24.3348 124.395 24.065L123.339 23.6333C122.906 23.4445 122.554 23.2287 122.257 23.0128C121.661 22.5272 121.336 21.9067 121.336 21.1512C121.336 20.3958 121.634 19.7753 122.257 19.2627C122.879 18.7501 123.61 18.5072 124.503 18.5072C125.586 18.4803 126.398 18.831 126.966 19.5055Z" fill="#333333"/>
<path d="M145.371 27.654H143.07V20.6933H141.284V18.6698H147.157V20.6933H145.371V27.654Z" fill="#333333"/>
<path d="M160.988 24.1197V18.6698H163.288V24.0927C163.288 25.2258 163.667 25.7924 164.452 25.7924C164.885 25.7924 165.183 25.6575 165.345 25.4147C165.508 25.1719 165.589 24.7132 165.589 24.0927V18.6698H167.89V24.1197C167.89 25.3337 167.592 26.251 166.996 26.8716C166.374 27.5191 165.508 27.8428 164.452 27.8428C163.37 27.8428 162.503 27.5191 161.881 26.8716C161.529 26.5208 161.313 26.1431 161.177 25.7654C161.069 25.3607 160.988 24.8211 160.988 24.1197Z" fill="#333333"/>
<path d="M185.807 27.654H182.261V18.6698H185.293C186.484 18.6698 187.431 18.8856 188.135 19.3173C188.568 19.5871 188.92 19.9109 189.217 20.3425C189.759 21.098 190.029 22.0422 190.029 23.1214C190.029 24.4974 189.65 25.5765 188.866 26.4129C188.108 27.2493 187.079 27.654 185.807 27.654ZM184.562 20.6933V25.6305H185.536C186.998 25.6305 187.756 24.8211 187.756 23.2024C187.756 22.4199 187.566 21.7994 187.187 21.3677C186.809 20.9361 186.267 20.7202 185.564 20.7202H184.562V20.6933Z" fill="#333333"/>
<path d="M204.862 27.654H202.561V18.6698H204.862V27.654Z" fill="#333333"/>
<path d="M221.236 27.8428C219.91 27.8428 218.773 27.3842 217.88 26.4939C216.96 25.6035 216.527 24.4974 216.527 23.1754C216.527 21.8534 216.987 20.7203 217.88 19.8299C218.8 18.9396 219.91 18.481 221.263 18.481C222.617 18.481 223.753 18.9396 224.674 19.8299C225.594 20.7203 226.054 21.8534 226.054 23.1484C226.054 24.4704 225.594 25.5766 224.674 26.4669C223.699 27.3842 222.563 27.8428 221.236 27.8428ZM221.263 20.5314C220.56 20.5314 219.964 20.7742 219.504 21.2868C219.044 21.7994 218.8 22.42 218.8 23.1484C218.8 23.9038 219.044 24.5513 219.504 25.037C219.964 25.5496 220.56 25.7924 221.29 25.7924C221.967 25.7924 222.563 25.5496 223.023 25.037C223.483 24.5244 223.726 23.9038 223.726 23.1754C223.726 22.42 223.483 21.7994 223.023 21.2868C222.535 20.7742 221.94 20.5314 221.263 20.5314Z" fill="#333333"/>
</g>
<defs>
<clipPath id="clip0">
<rect width="226" height="46" fill="white"/>
</clipPath>
</defs>
</svg>
